<svg xmlns="http://www.w3.org/2000/svg" xmlns:xlink="http://www.w3.org/1999/xlink" width="1080" zoomAndPan="magnify" viewBox="0 0 810 809.999993" height="1080" preserveAspectRatio="xMidYMid meet" version="1.0"><defs><g/></defs><g fill="#f9fafd" fill-opacity="1"><g transform="translate(83.295872, 533.757458)"><g><path d="M 126.453125 9.609375 C 198.273438 34.566406 252.140625 51.507812 288.046875 60.4375 C 323.960938 69.375 354.816406 73.84375 380.609375 73.84375 C 406.410156 73.84375 434.828125 67.941406 465.859375 56.140625 L 468.375 60.1875 C 427.238281 88.519531 385.765625 102.6875 343.953125 102.6875 C 301.128906 102.6875 252.398438 89.363281 197.765625 62.71875 C 155.617188 41.8125 129.488281 29.164062 119.375 24.78125 C 83.289062 8.59375 53.613281 0.332031 30.34375 0 L 30.34375 -5.0625 L 36.921875 -5.0625 C 45.691406 -5.0625 53.195312 -8.09375 59.4375 -14.15625 C 65.675781 -20.226562 68.960938 -27.816406 69.296875 -36.921875 L 69.296875 -317.140625 C 68.960938 -325.910156 65.675781 -333.414062 59.4375 -339.65625 C 53.195312 -345.894531 45.691406 -349.015625 36.921875 -349.015625 L 30.34375 -349.015625 L 30.34375 -354.0625 L 141.125 -354.0625 L 141.125 -349.015625 L 134.546875 -349.015625 C 125.773438 -349.015625 118.1875 -345.894531 111.78125 -339.65625 C 105.375 -333.414062 102.171875 -325.910156 102.171875 -317.140625 L 102.171875 -25.296875 C 102.171875 -19.222656 102.507812 -14.582031 103.1875 -11.375 C 103.863281 -8.175781 106.054688 -4.550781 109.765625 -0.5 C 113.472656 3.539062 119.035156 6.910156 126.453125 9.609375 Z M 126.453125 9.609375 "/></g></g></g><g fill="#f9fafd" fill-opacity="1"><g transform="translate(255.772835, 533.757458)"><g><path d="M 556.375 81.9375 C 558.394531 81.9375 560.421875 81.9375 562.453125 81.9375 L 562.453125 87 C 553.003906 88.34375 542.460938 89.015625 530.828125 89.015625 C 519.203125 89.015625 504.875 86.484375 487.84375 81.421875 C 470.820312 76.367188 455.398438 66.929688 441.578125 53.109375 C 413.253906 24.785156 396.054688 -11.96875 389.984375 -57.15625 L 359.125 -282.25 L 253.921875 -44.515625 C 244.472656 -23.941406 238.738281 -6.742188 236.71875 7.078125 L 231.65625 7.078125 L 100.65625 -277.6875 L 78.40625 -26.296875 C 77.726562 -20.566406 79.492188 -15.507812 83.703125 -11.125 C 87.921875 -6.738281 92.5625 -4.546875 97.625 -4.546875 L 105.71875 -4.546875 L 105.71875 0 L 7.59375 0 L 7.59375 -5.0625 L 15.6875 -5.0625 C 24.789062 -5.0625 32.796875 -7.84375 39.703125 -13.40625 C 46.617188 -18.96875 50.921875 -26.300781 52.609375 -35.40625 L 84.46875 -311.578125 C 54.789062 -369.921875 19.21875 -399.09375 -22.25 -399.09375 C -25.957031 -399.09375 -29.835938 -398.921875 -33.890625 -398.578125 L -33.890625 -403.640625 C -24.785156 -405.992188 -17.363281 -407.171875 -11.625 -407.171875 C -5.894531 -407.171875 0.335938 -406.914062 7.078125 -406.40625 C 13.828125 -405.90625 21.753906 -404.304688 30.859375 -401.609375 C 39.960938 -398.910156 48.5625 -394.945312 56.65625 -389.71875 C 64.75 -384.5 71.828125 -379.109375 77.890625 -373.546875 C 83.960938 -367.984375 89.695312 -361.828125 95.09375 -355.078125 C 104.195312 -342.941406 111.445312 -331.304688 116.84375 -320.171875 L 238.75 -56.140625 L 374.8125 -361.15625 L 379.359375 -361.15625 L 426.40625 -61.703125 C 433.476562 -14.492188 448.734375 21.242188 472.171875 45.515625 C 495.609375 69.796875 523.675781 81.9375 556.375 81.9375 Z M 556.375 81.9375 "/></g></g></g></svg>